<mxfile host="app.diagrams.net" modified="2024-02-14T20:09:02.684Z" agent="Mozilla/5.0 (Windows NT 10.0; Win64; x64; rv:122.0) Gecko/20100101 Firefox/122.0" version="23.1.4" etag="IQE3lKCrXvF50JBcVZ50" type="github">
  <diagram name="Page-1" id="4ZcfaZ4vpdODL3GOhnXK">
    <mxGraphModel>
      <root>
        <mxCell id="0" />
        <mxCell id="1" parent="0" />
      </root>
    </mxGraphModel>
  </diagram>
</mxfile>
